<svg width="1423" height="943" viewBox="0 0 1423 943" fill="none" xmlns="http://www.w3.org/2000/svg">
<path opacity="0.1" d="M0 0H1422.5V608L890 847.5H532L0 608.5V0Z" fill="#C4C4C4"/>
<path d="M933.647 869.921C931.771 852.31 926.61 842.704 912.061 825.949" stroke="#7E5146" stroke-width="1.599"/>
<path d="M953.47 869.921C954.582 856.793 957.641 849.632 966.262 837.142" stroke="#7E5146" stroke-width="1.599"/>
<path d="M940.712 872.319C938.69 853.333 939.42 829.654 925.629 807.675" stroke="#7E5146" stroke-width="1.72383"/>
<path d="M944.174 869.921C946.05 852.31 950.57 830.346 963.362 809.958" stroke="#7E5146" stroke-width="1.599"/>
<path d="M899.715 823.061L927.11 846.902L927.552 846.394C923.329 829.926 914.995 823.431 899.715 823.061Z" fill="#756547"/>
<path d="M899.715 823.061L927.11 846.902L926.669 847.409C909.775 845.501 902.192 838.143 899.715 823.061Z" fill="#9FA253"/>
<path d="M918.284 786.964L937.174 837.851L938.116 837.501C944.359 812.869 938.07 798.383 918.284 786.964Z" fill="#756547"/>
<path d="M918.284 786.963L937.173 837.851L936.231 838.2C915.428 823.608 910.741 808.527 918.284 786.963Z" fill="#9FA253"/>
<path d="M967.563 789.461L950.604 837.619L951.496 837.933C970.83 823.879 974.999 809.621 967.563 789.461Z" fill="#756547"/>
<path d="M967.563 789.461L950.603 837.618L949.712 837.304C943.45 814.237 949.136 800.513 967.563 789.461Z" fill="#9FA253"/>
<path d="M980.566 820.672L959.989 847.931L960.494 848.312C975.668 843.275 981.217 835.031 980.566 820.672Z" fill="#756547"/>
<path d="M980.566 820.672L959.989 847.93L959.484 847.549C960.171 831.575 966.578 823.98 980.566 820.672Z" fill="#9FA253"/>
<path d="M916.953 851.964H942.462V891.863H916.953C909.794 876.268 909.661 867.57 916.953 851.964Z" fill="#CD9C89"/>
<path d="M967.971 851.964H942.462V891.863H967.971C975.13 876.268 975.262 867.57 967.971 851.964Z" fill="#98665A"/>
<path d="M894.948 903.351H964.373V917.087H894.948C892.145 911.913 891.895 908.926 894.948 903.351Z" fill="#DDB3A6"/>
<path d="M993.899 903.351H924.474V917.087H993.899C996.702 911.913 996.952 908.926 993.899 903.351Z" fill="#DDB3A6"/>
<rect x="899.946" y="904.005" width="0.65408" height="12.4275" fill="#FC605C"/>
<rect x="901.908" y="904.005" width="0.65408" height="12.4275" fill="#FC605C"/>
<rect x="986.284" y="904.005" width="0.65408" height="12.4275" fill="#FC605C"/>
<rect x="988.247" y="904.005" width="0.65408" height="12.4275" fill="#FC605C"/>
<path d="M901.211 891.578H961.848V903.575H901.211C898.763 899.056 898.544 896.447 901.211 891.578Z" fill="#C17E7B"/>
<path d="M987.636 891.578H926.999V903.575H987.636C990.084 899.056 990.303 896.447 987.636 891.578Z" fill="#C17E7B"/>
<rect x="905.576" y="892.149" width="0.571285" height="10.8544" fill="#E39491"/>
<rect x="907.29" y="892.149" width="0.571285" height="10.8544" fill="#E39491"/>
<rect x="980.986" y="892.149" width="0.571285" height="10.8544" fill="#E39491"/>
<rect x="982.699" y="892.149" width="0.571285" height="10.8544" fill="#E39491"/>
<g opacity="0.9">
<path d="M682.555 884.759H711.188V914.316L678.399 912.468L682.555 884.759Z" fill="#B3B3B3"/>
<path d="M739.821 884.759H711.188V914.316L743.978 912.468L739.821 884.759Z" fill="#B3B3B3"/>
<rect x="699.181" y="884.759" width="32.3276" height="26.7858" fill="#B3B3B3"/>
<rect x="532" y="652" width="358.375" height="232.759" rx="6.46553" fill="#282828"/>
<path d="M532 847.813H890.375V878.293C890.375 881.864 887.481 884.759 883.91 884.759H538.466C534.895 884.759 532 881.864 532 878.293V847.813Z" fill="#D6D6D6"/>
<rect x="652.074" y="911.545" width="117.303" height="5.54188" fill="#DBDBDB"/>
<rect x="544.008" y="663.084" width="335.284" height="174.569" fill="#567479"/>
<circle cx="711.188" cy="866.286" r="6.46553" fill="#282828"/>
<path d="M689.944 667.972C689.944 665.272 692.132 663.084 694.832 663.084H875.327C878.027 663.084 880.215 665.272 880.215 667.972V837.653H694.832C692.132 837.653 689.944 835.464 689.944 832.765V667.972Z" fill="#575965"/>
<path d="M551.397 673.513C551.397 670.814 553.585 668.625 556.285 668.625H691.521C694.221 668.625 696.409 670.814 696.409 673.513V827.225C696.409 829.923 694.222 832.111 691.523 832.111H556.285C553.585 832.111 551.397 829.923 551.397 827.223V673.513Z" fill="#B4B5B9"/>
<rect x="566.175" y="764.685" width="50.8006" height="50.8006" rx="4.61824" fill="#CACACA"/>
<rect x="631.754" y="764.685" width="50.8006" height="50.8006" rx="4.61824" fill="#CACACA"/>
<path d="M551.397 673.513C551.397 670.814 553.585 668.625 556.285 668.625H691.523C694.222 668.625 696.409 670.813 696.409 673.512V682.48H551.397V673.513Z" fill="#616269"/>
<path d="M672.395 667.972C672.395 665.272 674.583 663.084 677.283 663.084H707.223C709.923 663.084 712.111 665.272 712.111 667.972V837.653H677.283C674.583 837.653 672.395 835.464 672.395 832.765V667.972Z" fill="#464951"/>
<path d="M672.395 667.972C672.395 665.272 674.583 663.084 677.283 663.084H880.215V676.938H672.395V667.972Z" fill="#3F4146"/>
<circle cx="682.282" cy="669.439" r="3.42163" fill="#FC605C"/>
<circle cx="562.208" cy="674.98" r="3.42163" fill="#FC605C"/>
<circle cx="693.035" cy="669.439" r="3.42163" fill="#FCBB40"/>
<circle cx="572.961" cy="674.98" r="3.42163" fill="#FCBB40"/>
<circle cx="703.789" cy="669.439" r="3.42163" fill="#34C648"/>
<circle cx="583.715" cy="674.98" r="3.42163" fill="#34C648"/>
<rect x="731.508" y="685.251" width="102.525" height="7.38918" fill="#685B69"/>
<rect x="731.508" y="700.953" width="125.616" height="7.38918" fill="#685B69"/>
<rect x="731.508" y="716.655" width="115.456" height="7.38918" fill="#616778"/>
<rect x="731.508" y="732.357" width="84.9755" height="7.38918" fill="#616778"/>
<rect x="731.508" y="748.059" width="102.525" height="7.38918" fill="#677171"/>
<rect x="731.508" y="763.761" width="125.616" height="7.38918" fill="#677171"/>
<rect x="731.508" y="779.463" width="92.3647" height="7.38918" fill="#726A73"/>
<rect x="731.508" y="795.165" width="125.616" height="7.38918" fill="#726A73"/>
<rect x="731.508" y="810.867" width="125.616" height="7.38918" fill="#676B76"/>
<rect x="731.508" y="826.569" width="96.0593" height="7.38918" fill="#676B76"/>
<rect x="551.397" y="682.48" width="120.998" height="65.5789" fill="#CACACA"/>
</g>
<rect x="412" y="917.086" width="597.6" height="24.9385" rx="9.23647" fill="#786A66"/>
<path d="M462 859C462 857.895 462.895 857 464 857H486V917H462V859Z" fill="#FADD84"/>
<path d="M492.785 834.794L489 839C488.631 839.369 488.892 840 489.414 840H492.17C492.512 840 492.684 840 492.839 839.947C492.917 839.921 492.991 839.886 493.059 839.842C493.198 839.753 493.305 839.619 493.519 839.352L495.394 837.008C495.991 836.262 496.289 835.889 496.28 835.524C496.275 835.333 496.216 835.148 496.11 834.99C495.906 834.687 495.446 834.556 494.527 834.294C494.114 834.175 493.907 834.116 493.707 834.14C493.6 834.153 493.496 834.183 493.399 834.229C493.217 834.315 493.073 834.474 492.785 834.794Z" fill="white" fill-opacity="0.7"/>
<path d="M463.422 837.342L473.356 846.412C473.725 846.749 474.286 846.762 474.67 846.442L476.235 845.137C476.658 844.785 476.717 844.157 476.366 843.732L468.088 833.712C467.756 833.31 467.171 833.23 466.744 833.529L463.523 835.784C462.998 836.151 462.949 836.91 463.422 837.342Z" stroke="#F7CE81" stroke-width="3"/>
<path d="M472 844C472 841.791 473.791 840 476 840H495C497.209 840 499 841.791 499 844V857H472V844Z" fill="#FADD84"/>
<path d="M462 859C462 857.895 462.895 857 464 857H506C507.105 857 508 857.895 508 859V917H462V859Z" fill="#FFF0B3"/>
<path d="M485 857H506C507.105 857 508 857.895 508 859V917H485V857Z" fill="#EBC779"/>
<g opacity="0.5">
<path d="M318.366 596L314.372 615.695L303.553 620.688L314.372 625.68L318.366 645.375L322.36 625.68L333.672 620.688L322.36 615.695L318.366 596Z" fill="white"/>
<path d="M409.339 684.875L407.342 694.723L401.933 697.219L407.342 699.715L409.339 709.563L411.336 699.715L416.992 697.219L411.336 694.723L409.339 684.875Z" fill="white"/>
<path d="M295.406 735.238L293.409 745.085L288 747.581L293.409 750.078L295.406 759.925L297.403 750.078L303.059 747.581L297.403 745.085L295.406 735.238Z" fill="white"/>
</g>
<g opacity="0.5">
<path d="M1081.63 521L1085.62 540.695L1096.44 545.688L1085.62 550.68L1081.63 570.375L1077.63 550.68L1066.32 545.688L1077.63 540.695L1081.63 521Z" fill="white"/>
<path d="M990.653 609.875L992.65 619.723L998.059 622.219L992.65 624.715L990.653 634.563L988.656 624.715L983 622.219L988.656 619.723L990.653 609.875Z" fill="white"/>
<path d="M1104.59 660.238L1106.58 670.085L1111.99 672.581L1106.58 675.078L1104.59 684.925L1102.59 675.078L1096.93 672.581L1102.59 670.085L1104.59 660.238Z" fill="white"/>
</g>
</svg>
