<svg width="1422" height="806" viewBox="0 0 1422 806" fill="none" xmlns="http://www.w3.org/2000/svg">
<path opacity="0.1" d="M0 -141H1438.5V467.5L1137 715H749L0 467.5V-141Z" fill="#C4C4C4"/>
<path d="M1210.18 707.155C1207.35 680.566 1199.56 666.063 1177.59 640.767" stroke="#7E5146" stroke-width="2.41409"/>
<path d="M1240.11 707.154C1241.79 687.334 1246.4 676.522 1259.42 657.665" stroke="#7E5146" stroke-width="2.41409"/>
<path d="M1220.85 710.775C1217.79 682.11 1218.9 646.361 1198.07 613.179" stroke="#7E5146" stroke-width="2.60256"/>
<path d="M1226.07 707.154C1228.91 680.565 1235.73 647.405 1255.04 616.625" stroke="#7E5146" stroke-width="2.41409"/>
<path d="M1158.95 636.408L1200.31 672.401L1200.98 671.635C1194.6 646.772 1182.02 636.966 1158.95 636.408Z" fill="#756547"/>
<path d="M1158.95 636.407L1200.31 672.401L1199.64 673.166C1174.14 670.286 1162.69 659.178 1158.95 636.407Z" fill="#9FA253"/>
<path d="M1186.99 581.91L1215.5 658.737L1216.93 658.209C1226.35 621.02 1216.86 599.149 1186.99 581.91Z" fill="#756547"/>
<path d="M1186.99 581.909L1215.5 658.736L1214.08 659.264C1182.67 637.234 1175.6 614.464 1186.99 581.909Z" fill="#9FA253"/>
<path d="M1261.39 585.679L1235.78 658.385L1237.13 658.859C1266.32 637.643 1272.61 616.116 1261.39 585.679Z" fill="#756547"/>
<path d="M1261.39 585.679L1235.78 658.385L1234.43 657.911C1224.98 623.085 1233.56 602.365 1261.39 585.679Z" fill="#9FA253"/>
<path d="M1281.02 632.801L1249.95 673.954L1250.71 674.529C1273.62 666.925 1282 654.479 1281.02 632.801Z" fill="#756547"/>
<path d="M1281.02 632.8L1249.95 673.953L1249.19 673.378C1250.22 649.262 1259.9 637.795 1281.02 632.8Z" fill="#9FA253"/>
<path d="M1184.98 680.043H1223.49V740.28H1184.98C1174.17 716.737 1173.97 703.605 1184.98 680.043Z" fill="#CD9C89"/>
<path d="M1262 680.043H1223.49V740.28H1262C1272.81 716.737 1273.01 703.605 1262 680.043Z" fill="#98665A"/>
<path d="M1151.75 757.625H1256.57V778.362H1151.75C1147.52 770.551 1147.14 766.042 1151.75 757.625Z" fill="#DDB3A6"/>
<path d="M1301.15 757.625H1196.33V778.362H1301.15C1305.38 770.551 1305.76 766.042 1301.15 757.625Z" fill="#DDB3A6"/>
<rect x="1159.3" y="758.612" width="0.9875" height="18.7625" fill="#FC605C"/>
<rect x="1162.26" y="758.613" width="0.9875" height="18.7625" fill="#FC605C"/>
<rect x="1289.65" y="758.613" width="0.9875" height="18.7625" fill="#FC605C"/>
<rect x="1292.61" y="758.613" width="0.9875" height="18.7625" fill="#FC605C"/>
<path d="M1161.21 739.851H1252.76V757.963H1161.21C1157.51 751.141 1157.18 747.202 1161.21 739.851Z" fill="#C17E7B"/>
<path d="M1291.69 739.851H1200.14V757.963H1291.69C1295.39 751.141 1295.72 747.202 1291.69 739.851Z" fill="#C17E7B"/>
<rect x="1167.8" y="740.713" width="0.8625" height="16.3875" fill="#E39491"/>
<rect x="1170.39" y="740.714" width="0.8625" height="16.3875" fill="#E39491"/>
<rect x="1281.65" y="740.714" width="0.8625" height="16.3875" fill="#E39491"/>
<rect x="1284.24" y="740.714" width="0.8625" height="16.3875" fill="#E39491"/>
<g opacity="0.9">
<path d="M900.575 743.8H931.188V775.4L896.132 773.425L900.575 743.8Z" fill="#B3B3B3"/>
<path d="M961.8 743.8H931.188V775.4L966.244 773.425L961.8 743.8Z" fill="#B3B3B3"/>
<rect x="918.35" y="743.8" width="34.5625" height="28.6375" fill="#B3B3B3"/>
<rect x="739.612" y="494.95" width="383.15" height="248.85" rx="6.9125" fill="#282828"/>
<path d="M739.612 704.3H1122.76V736.887C1122.76 740.705 1119.67 743.8 1115.85 743.8H746.525C742.707 743.8 739.612 740.705 739.612 736.887V704.3Z" fill="#D6D6D6"/>
<rect x="867.987" y="772.438" width="125.412" height="5.925" fill="#DBDBDB"/>
<rect x="752.45" y="506.8" width="358.462" height="186.637" fill="#567479"/>
<circle cx="931.188" cy="724.05" r="6.9125" fill="#282828"/>
<path d="M908.475 512.026C908.475 509.14 910.815 506.8 913.701 506.8H1106.67C1109.56 506.8 1111.9 509.14 1111.9 512.026V693.437H913.701C910.815 693.437 908.475 691.098 908.475 688.212V512.026Z" fill="#575965"/>
<path d="M760.35 517.951C760.35 515.065 762.69 512.725 765.576 512.725H910.162C913.048 512.725 915.387 515.065 915.387 517.951V682.289C915.387 685.174 913.049 687.512 910.164 687.512H765.576C762.69 687.512 760.35 685.173 760.35 682.287V517.951Z" fill="#B4B5B9"/>
<rect x="776.15" y="615.425" width="54.3125" height="54.3125" rx="4.9375" fill="#CACACA"/>
<rect x="846.263" y="615.425" width="54.3125" height="54.3125" rx="4.9375" fill="#CACACA"/>
<path d="M760.35 517.951C760.35 515.065 762.69 512.725 765.576 512.725H910.164C913.049 512.725 915.387 515.064 915.387 517.949V527.537H760.35V517.951Z" fill="#616269"/>
<path d="M889.713 512.026C889.713 509.14 892.052 506.8 894.938 506.8H926.949C929.835 506.8 932.175 509.14 932.175 512.026V693.437H894.938C892.052 693.437 889.713 691.098 889.713 688.212V512.026Z" fill="#464951"/>
<path d="M889.713 512.026C889.713 509.14 892.052 506.8 894.938 506.8H1111.9V521.612H889.713V512.026Z" fill="#3F4146"/>
<circle cx="900.283" cy="513.594" r="3.65817" fill="#FC605C"/>
<circle cx="771.908" cy="519.519" r="3.65817" fill="#FC605C"/>
<circle cx="911.78" cy="513.594" r="3.65817" fill="#FCBB40"/>
<circle cx="783.405" cy="519.519" r="3.65817" fill="#FCBB40"/>
<circle cx="923.277" cy="513.594" r="3.65817" fill="#34C648"/>
<circle cx="794.902" cy="519.519" r="3.65817" fill="#34C648"/>
<rect x="952.913" y="530.5" width="109.613" height="7.9" fill="#685B69"/>
<rect x="952.913" y="547.287" width="134.3" height="7.9" fill="#685B69"/>
<rect x="952.913" y="564.075" width="123.438" height="7.9" fill="#616778"/>
<rect x="952.913" y="580.862" width="90.85" height="7.9" fill="#616778"/>
<rect x="952.913" y="597.65" width="109.613" height="7.9" fill="#677171"/>
<rect x="952.913" y="614.438" width="134.3" height="7.9" fill="#677171"/>
<rect x="952.913" y="631.225" width="98.75" height="7.9" fill="#726A73"/>
<rect x="952.913" y="648.013" width="134.3" height="7.9" fill="#726A73"/>
<rect x="952.913" y="664.8" width="134.3" height="7.9" fill="#676B76"/>
<rect x="952.913" y="681.588" width="102.7" height="7.9" fill="#676B76"/>
<rect x="760.35" y="527.537" width="129.363" height="70.1125" fill="#CACACA"/>
</g>
<rect x="697.15" y="778.362" width="638.912" height="26.6625" rx="9.875" fill="#786A66"/>
</svg>
