<svg width="54" height="54" viewBox="0 0 54 54" fill="none" xmlns="http://www.w3.org/2000/svg">
<rect width="54" height="54" rx="9" fill="url(#paint0_linear_3012_1021)"/>
<path d="M36.0422 21.9299C35.7065 23.1467 35.0772 24.1013 34.1541 24.7936C33.231 25.4649 32.0666 25.8845 30.661 26.0523C31.668 26.1363 32.4233 26.43 32.9268 26.9335C33.4303 27.437 33.682 28.0978 33.682 28.916C33.682 29.2307 33.6296 29.6188 33.5247 30.0804L33.1785 31.6223C33.1366 31.8321 33.1156 31.979 33.1156 32.0629C33.1156 32.3356 33.1785 32.5454 33.3044 32.6923C33.4303 32.8181 33.6086 32.8811 33.8394 32.8811C34.2799 32.8811 34.5946 32.944 34.7835 33.0699C34.9932 33.1958 35.0667 33.4265 35.0037 33.7622C34.9198 34.2447 34.6681 34.7168 34.2485 35.1783C33.8289 35.6399 33.231 36.028 32.4548 36.3427C31.6995 36.6364 30.7764 36.7832 29.6855 36.7832C28.3009 36.7832 27.1995 36.479 26.3813 35.8706C25.5631 35.2412 25.154 34.3496 25.154 33.1958C25.154 32.7552 25.2169 32.2832 25.3428 31.7797L25.8463 29.7657C25.9302 29.4929 25.9722 29.2097 25.9722 28.916C25.9722 28.4335 25.8043 28.0873 25.4687 27.8775C25.154 27.6677 24.64 27.5628 23.9267 27.5628H22.7309L21.2833 32.7867C21.2414 32.9126 21.2204 33.0699 21.2204 33.2587C21.2204 33.5524 21.2938 33.8042 21.4407 34.014C21.5875 34.2238 21.7868 34.444 22.0386 34.6748C22.2274 34.8217 22.3742 34.9685 22.4791 35.1154C22.584 35.2412 22.6365 35.3776 22.6365 35.5245C22.6365 35.8811 22.4686 36.1329 22.133 36.2797C21.7973 36.4266 21.3043 36.5 20.6539 36.5H12.7553C12.2098 36.5 11.8007 36.4056 11.528 36.2168C11.2552 36.007 11.1608 35.7238 11.2447 35.3671C11.2867 35.1783 11.3706 35.0315 11.4965 34.9266C11.6014 34.8007 11.7692 34.6643 12 34.5175C12.3566 34.3077 12.6399 34.0874 12.8497 33.8566C13.0595 33.6258 13.2273 33.2692 13.3532 32.7867L17.1924 19.2236C17.2763 18.9509 17.3182 18.6886 17.3182 18.4369C17.3182 18.2061 17.2763 18.0173 17.1924 17.8704C17.1294 17.7026 17.035 17.5138 16.9091 17.304C16.7203 17.0313 16.6259 16.811 16.6259 16.6432C16.6259 16.5802 16.6469 16.4648 16.6889 16.297C16.7728 16.0243 16.9511 15.8355 17.2238 15.7306C17.5175 15.6047 17.9581 15.5417 18.5455 15.5417H29.0876C30.5352 15.5417 31.7939 15.762 32.8639 16.2026C33.9548 16.6432 34.7835 17.2516 35.3499 18.0278C35.9373 18.783 36.231 19.6432 36.231 20.6082C36.231 21.0488 36.1681 21.4894 36.0422 21.9299ZM27.9862 21.6152C28.0911 21.1327 28.1435 20.7656 28.1435 20.5138C28.1435 19.4019 27.5351 18.846 26.3183 18.846H24.9966L23.612 24.416H24.9337C25.7519 24.416 26.3918 24.2167 26.8533 23.8181C27.3358 23.4194 27.7134 22.6852 27.9862 21.6152ZM39.623 30.1433C40.4622 30.1433 41.165 30.4265 41.7314 30.993C42.3188 31.5594 42.6126 32.2517 42.6126 33.0699C42.6126 33.6363 42.4552 34.1923 42.1405 34.7377C41.8468 35.2832 41.4272 35.7343 40.8818 36.0909C40.3573 36.4266 39.7594 36.5944 39.088 36.5944C38.2699 36.5944 37.5775 36.3112 37.0111 35.7447C36.4447 35.1783 36.151 34.486 36.13 33.6678C36.13 33.1014 36.2768 32.5454 36.5705 32C36.8642 31.4545 37.2733 31.0139 37.7978 30.6783C38.3433 30.3216 38.9517 30.1433 39.623 30.1433Z" fill="url(#paint1_linear_3012_1021)"/>
<defs>
<linearGradient id="paint0_linear_3012_1021" x1="27" y1="0" x2="27" y2="54" gradientUnits="userSpaceOnUse">
<stop stop-color="#44474A"/>
<stop offset="1" stop-color="#695E5D"/>
</linearGradient>
<linearGradient id="paint1_linear_3012_1021" x1="12" y1="27.5" x2="46" y2="27.5" gradientUnits="userSpaceOnUse">
<stop stop-color="#FC605C"/>
<stop offset="1" stop-color="#E39491"/>
</linearGradient>
</defs>
</svg>
